<svg width="18" height="18" viewBox="0 0 18 18" fill="none" xmlns="http://www.w3.org/2000/svg">
<path id="search" d="M17.8613 17.1919L14.0632 13.3937C15.3289 11.9706 16.1058 10.1033 16.1058 8.05306C16.1058 3.61251 12.4933 0 8.05289 0C3.61243 0 0 3.61251 0 8.05306C0 12.4936 3.61243 16.1061 8.05289 16.1061C10.1031 16.1061 11.9704 15.3292 13.3934 14.0635L17.1915 17.8617C17.2843 17.9545 17.4056 18 17.5269 18C17.6481 18 17.7694 17.9536 17.8623 17.8617C18.0461 17.6769 18.0461 17.3775 17.8613 17.1919ZM0.946474 8.05306C0.946474 4.13548 4.13352 0.947419 8.05196 0.947419C11.9704 0.947419 15.1575 4.13548 15.1575 8.05306C15.1575 11.9706 11.9704 15.1587 8.05196 15.1587C4.13352 15.1587 0.946474 11.9706 0.946474 8.05306Z" fill="#343333"/>
</svg>
